<?xml version="1.0" encoding="UTF-8" standalone="no"?>
<svg
   xmlns:dc="http://purl.org/dc/elements/1.1/"
   xmlns:cc="http://creativecommons.org/ns#"
   xmlns:rdf="http://www.w3.org/1999/02/22-rdf-syntax-ns#"
   xmlns:svg="http://www.w3.org/2000/svg"
   xmlns="http://www.w3.org/2000/svg"
   xmlns:sodipodi="http://sodipodi.sourceforge.net/DTD/sodipodi-0.dtd"
   xmlns:inkscape="http://www.inkscape.org/namespaces/inkscape"
   sodipodi:docname="code-and-coffee-logo.svg"
   inkscape:version="1.0 (4035a4fb49, 2020-05-01)"
   id="svg28"
   version="1.1"
   viewBox="0 0 150 150"
   height="15cm"
   width="15cm">
  <defs
     id="defs22">
    <rect
       id="rect101"
       height="23.566206"
       width="134.0328"
       y="96.474155"
       x="8.8373272" />
    <rect
       id="rect95"
       height="22.829762"
       width="136.24213"
       y="92.791935"
       x="11.046659" />
  </defs>
  <sodipodi:namedview
     inkscape:window-maximized="1"
     inkscape:window-y="-8"
     inkscape:window-x="1672"
     inkscape:window-height="987"
     inkscape:window-width="1680"
     width="15mm"
     units="cm"
     showgrid="false"
     inkscape:document-rotation="0"
     inkscape:current-layer="layer1"
     inkscape:document-units="mm"
     inkscape:cy="560"
     inkscape:cx="400"
     inkscape:zoom="0.35927152"
     inkscape:pageshadow="2"
     inkscape:pageopacity="0.0"
     borderopacity="1.0"
     bordercolor="#666666"
     pagecolor="#ffffff"
     id="base" />
  <metadata
     id="metadata25">
    <rdf:RDF>
      <cc:Work
         rdf:about="">
        <dc:format>image/svg+xml</dc:format>
        <dc:type
           rdf:resource="http://purl.org/dc/dcmitype/StillImage" />
        <dc:title></dc:title>
      </cc:Work>
    </rdf:RDF>
  </metadata>
  <g
     id="layer1"
     inkscape:groupmode="layer"
     inkscape:label="Calque 1">
    <text
       style="line-height:1.25;font-family:Ubuntu;font-size:10.58333333px;-inkscape-font-specification:'Ubuntu Bold';font-weight:bold;white-space:pre;shape-inside:url(#rect95);"
       id="text93"
       xml:space="preserve" />
    <text
       transform="matrix(1.1790317,0,0,1.1790317,1.284231,-28.978718)"
       style="font-weight:bold;font-size:16.9333px;line-height:1.25;font-family:Ubuntu;-inkscape-font-specification:'Ubuntu Bold';white-space:pre;shape-inside:url(#rect101);stroke-width:0.848153;"
       id="text99"
       xml:space="preserve"><tspan
         x="8.8378906"
         y="112.26478"><tspan
           style="font-size:16.9333px;stroke-width:0.848153">Code&amp;Coffee</tspan></tspan></text>
    <g
       style="stroke-width:2.19504"
       transform="matrix(0.12053714,0,0,0.12053714,42.84039,25.711266)"
       id="g304">
      <g
         style="stroke-width:2.19504"
         id="g202">
	<g
   style="stroke-width:2.19504"
   id="g200">
		<path
   style="stroke-width:2.19504"
   d="M 394.655,202.654 H 95.988 c -17.643,0 -32,14.357 -32,32 v 21.333 c 0,76.117 42.048,145.152 109.717,180.16 5.227,2.688 11.669,0.661 14.379,-4.587 2.688,-5.227 0.661,-11.669 -4.587,-14.379 C 122.953,385.864 85.321,324.104 85.321,255.986 v -21.333 c 0,-5.888 4.779,-10.667 10.667,-10.667 h 298.667 c 5.888,0 10.667,4.779 10.667,10.667 v 21.333 c 0,68.117 -37.632,129.877 -98.197,161.173 -5.248,2.709 -7.275,9.152 -4.587,14.379 1.899,3.669 5.632,5.781 9.493,5.781 1.664,0 3.328,-0.384 4.885,-1.195 67.691,-34.987 109.739,-104 109.739,-180.139 v -21.333 c 0,-17.641 -14.358,-31.998 -32,-31.998 z"
   id="path198" />

	</g>

</g>
      <g
         style="stroke-width:2.19504"
         id="g208">
	<g
   style="stroke-width:2.19504"
   id="g206">
		<path
   style="stroke-width:2.19504"
   d="m 489.865,422.558 c -1.664,-3.989 -5.547,-6.592 -9.856,-6.592 H 10.676 c -4.309,0 -8.192,2.603 -9.856,6.592 -1.664,3.989 -0.747,8.576 2.304,11.627 l 23.915,23.936 c 14.123,14.101 32.853,21.867 52.8,21.867 h 330.965 c 19.947,0 38.699,-7.765 52.843,-21.867 l 23.915,-23.936 c 3.05,-3.051 3.967,-7.638 2.303,-11.627 z m -41.322,20.48 c -10.069,10.069 -23.488,15.616 -37.717,15.616 H 79.839 c -14.229,0 -27.648,-5.547 -37.717,-15.616 l -5.717,-5.717 H 454.26 Z"
   id="path204" />

	</g>

</g>
      <g
         style="stroke-width:2.19504"
         id="g214">
	<g
   style="stroke-width:2.19504"
   id="g212">
		<path
   style="stroke-width:2.19504"
   d="m 491.359,253.022 c -28.736,-18.475 -74.645,1.579 -79.787,3.904 -5.355,2.453 -7.744,8.768 -5.291,14.144 2.453,5.376 8.747,7.744 14.144,5.291 10.283,-4.672 43.264,-15.744 59.392,-5.355 7.275,4.672 10.837,13.739 10.837,27.648 0,42.709 -86.144,68.523 -119.403,74.88 l -7.552,1.493 c -5.781,1.131 -9.536,6.741 -8.405,12.523 1.003,5.077 5.461,8.597 10.453,8.597 0.683,0 1.365,-0.064 2.069,-0.213 l 7.488,-1.472 c 5.589,-1.067 136.683,-26.773 136.683,-95.808 10e-4,-21.461 -6.953,-36.8 -20.628,-45.632 z"
   id="path210" />

	</g>

</g>
      <g
         style="stroke-width:2.19504"
         id="g220">
	<g
   style="stroke-width:2.19504"
   id="g218">
		<path
   style="stroke-width:2.19504"
   d="m 328.372,113.31 c 17.344,-21.675 17.344,-55.616 0,-77.291 -3.691,-4.608 -10.368,-5.376 -14.997,-1.664 -4.608,3.691 -5.355,10.389 -1.664,14.997 10.987,13.717 10.987,36.907 -0.021,50.667 -17.365,21.675 -17.365,55.616 0,77.291 2.112,2.645 5.205,4.011 8.341,4.011 2.325,0 4.693,-0.768 6.656,-2.347 4.608,-3.691 5.355,-10.411 1.664,-14.997 -11.008,-13.718 -11.008,-36.907 0.021,-50.667 z"
   id="path216" />

	</g>

</g>
      <g
         style="stroke-width:2.19504"
         id="g226">
	<g
   style="stroke-width:2.19504"
   id="g224">
		<path
   style="stroke-width:2.19504"
   d="m 264.287,113.31 c 17.365,-21.675 17.365,-55.616 0,-77.291 -3.669,-4.608 -10.389,-5.355 -14.997,-1.664 -4.608,3.691 -5.355,10.411 -1.664,14.997 11.008,13.717 11.008,36.907 -0.021,50.667 -17.344,21.675 -17.344,55.616 0,77.291 2.112,2.645 5.205,4.011 8.341,4.011 2.325,0 4.672,-0.768 6.656,-2.347 4.608,-3.691 5.355,-10.389 1.664,-14.997 -10.987,-13.718 -10.987,-36.907 0.021,-50.667 z"
   id="path222" />

	</g>

</g>
      <g
         style="stroke-width:2.19504"
         id="g232">
	<g
   style="stroke-width:2.19504"
   id="g230">
		<path
   style="stroke-width:2.19504"
   d="m 200.372,113.331 c 17.344,-21.675 17.344,-55.616 0,-77.291 -3.669,-4.608 -10.368,-5.376 -14.997,-1.664 -4.587,3.669 -5.333,10.389 -1.664,14.976 10.987,13.717 10.987,36.907 -0.021,50.667 -17.365,21.675 -17.365,55.616 0,77.291 2.112,2.645 5.205,4.011 8.341,4.011 2.325,0 4.693,-0.768 6.656,-2.325 4.608,-3.691 5.355,-10.411 1.664,-14.997 -11.008,-13.74 -11.008,-36.908 0.021,-50.668 z"
   id="path228" />

	</g>

</g>
      <g
         style="stroke-width:2.19504"
         id="g234">
</g>
      <g
         style="stroke-width:2.19504"
         id="g236">
</g>
      <g
         style="stroke-width:2.19504"
         id="g238">
</g>
      <g
         style="stroke-width:2.19504"
         id="g240">
</g>
      <g
         style="stroke-width:2.19504"
         id="g242">
</g>
      <g
         style="stroke-width:2.19504"
         id="g244">
</g>
      <g
         style="stroke-width:2.19504"
         id="g246">
</g>
      <g
         style="stroke-width:2.19504"
         id="g248">
</g>
      <g
         style="stroke-width:2.19504"
         id="g250">
</g>
      <g
         style="stroke-width:2.19504"
         id="g252">
</g>
      <g
         style="stroke-width:2.19504"
         id="g254">
</g>
      <g
         style="stroke-width:2.19504"
         id="g256">
</g>
      <g
         style="stroke-width:2.19504"
         id="g258">
</g>
      <g
         style="stroke-width:2.19504"
         id="g260">
</g>
      <g
         style="stroke-width:2.19504"
         id="g262">
</g>
    </g>
  </g>
</svg>
