<?xml version="1.0" encoding="UTF-8" standalone="no"?>
<svg
   xmlns:dc="http://purl.org/dc/elements/1.1/"
   xmlns:cc="http://creativecommons.org/ns#"
   xmlns:rdf="http://www.w3.org/1999/02/22-rdf-syntax-ns#"
   xmlns:svg="http://www.w3.org/2000/svg"
   xmlns="http://www.w3.org/2000/svg"
   xmlns:sodipodi="http://sodipodi.sourceforge.net/DTD/sodipodi-0.dtd"
   xmlns:inkscape="http://www.inkscape.org/namespaces/inkscape"
   sodipodi:docname="coffee-logo1.svg"
   inkscape:version="1.0 (4035a4fb49, 2020-05-01)"
   id="svg8"
   version="1.1"
   viewBox="0 0 2250.0001 2249.9999"
   height="15cm"
   width="15cm">
  <defs
     id="defs2">
    <rect
       id="rect178"
       height="430.89285"
       width="1995.7143"
       y="1451.4286"
       x="113.39286" />
  </defs>
  <sodipodi:namedview
     inkscape:window-maximized="0"
     inkscape:window-y="4"
     inkscape:window-x="26"
     inkscape:window-height="967"
     inkscape:window-width="1452"
     units="cm"
     showgrid="false"
     inkscape:document-rotation="0"
     inkscape:current-layer="layer1"
     inkscape:document-units="mm"
     inkscape:cy="560"
     inkscape:cx="400"
     inkscape:zoom="0.35"
     inkscape:pageshadow="2"
     inkscape:pageopacity="0.0"
     borderopacity="1.0"
     bordercolor="#666666"
     pagecolor="#ffffff"
     id="base" />
  <metadata
     id="metadata5">
    <rdf:RDF>
      <cc:Work
         rdf:about="">
        <dc:format>image/svg+xml</dc:format>
        <dc:type
           rdf:resource="http://purl.org/dc/dcmitype/StillImage" />
        <dc:title></dc:title>
      </cc:Work>
    </rdf:RDF>
  </metadata>
  <g
     id="layer1"
     inkscape:groupmode="layer"
     inkscape:label="Calque 1">
    <g
       style="stroke-width:1.80645"
       transform="matrix(2.1969866,0,0,2.1969866,560.16072,174.62504)"
       id="g174">
      <g
         style="stroke-width:1.80645"
         id="g81">
	<g
   style="stroke-width:1.80645"
   id="g79">
		<path
   style="stroke-width:1.80645"
   d="M 422,211 V 181 H 30 v 75 c 0,69.501 36.669,131.461 91.558,166 h 207.884 c 13.48,-8.483 26.829,-18.594 37.837,-30 H 407 c 57.891,0 105,-47.109 105,-105 v -76 z m 60,76 c 0,41.353 -33.647,75 -75,75 H 390.674 C 410.287,331.652 422,294.763 422,256 v -15 h 60 z"
   id="path77" />

	</g>

</g>
      <g
         style="stroke-width:1.80645"
         id="g87">
	<g
   style="stroke-width:1.80645"
   id="g85">
		<path
   style="stroke-width:1.80645"
   d="m 160.068,0 -16.641,24.961 c 5.962,3.97 9.375,10.356 9.375,17.52 0,7.164 -3.413,13.55 -9.375,17.52 -14.238,9.492 -22.734,25.371 -22.734,42.48 0,17.109 8.496,32.988 22.734,42.48 L 160.067,120 c -5.962,-3.97 -9.375,-10.356 -9.375,-17.52 0,-7.164 3.413,-13.55 9.375,-17.52 14.239,-9.491 22.735,-25.37 22.735,-42.48 0,-17.109 -8.496,-32.988 -22.734,-42.48 z"
   id="path83" />

	</g>

</g>
      <g
         style="stroke-width:1.80645"
         id="g93">
	<g
   style="stroke-width:1.80645"
   id="g91">
		<path
   style="stroke-width:1.80645"
   d="m 235.068,0 -16.641,24.961 c 5.962,3.97 9.375,10.356 9.375,17.52 0,7.164 -3.413,13.55 -9.375,17.52 -14.238,9.492 -22.734,25.371 -22.734,42.48 0,17.109 8.496,32.988 22.734,42.48 L 235.067,120 c -5.962,-3.97 -9.375,-10.356 -9.375,-17.52 0,-7.164 3.413,-13.55 9.375,-17.52 14.239,-9.491 22.735,-25.37 22.735,-42.48 0,-17.109 -8.496,-32.988 -22.734,-42.48 z"
   id="path89" />

	</g>

</g>
      <g
         style="stroke-width:1.80645"
         id="g99">
	<g
   style="stroke-width:1.80645"
   id="g97">
		<path
   style="stroke-width:1.80645"
   d="m 310.068,0 -16.641,24.961 c 5.962,3.97 9.375,10.356 9.375,17.52 0,7.164 -3.413,13.55 -9.375,17.52 -14.238,9.492 -22.734,25.371 -22.734,42.48 0,17.109 8.496,32.988 22.734,42.48 L 310.067,120 c -5.962,-3.97 -9.375,-10.356 -9.375,-17.52 0,-7.164 3.413,-13.55 9.375,-17.52 14.239,-9.491 22.735,-25.37 22.735,-42.48 0,-17.109 -8.496,-32.988 -22.734,-42.48 z"
   id="path95" />

	</g>

</g>
      <g
         style="stroke-width:1.80645"
         id="g105">
	<g
   style="stroke-width:1.80645"
   id="g103">
		<path
   style="stroke-width:1.80645"
   d="m 0,452 c 0,33.137 26.863,60 60,60 h 332 c 33.137,0 60,-26.863 60,-60 z"
   id="path101" />

	</g>

</g>
      <g
         style="stroke-width:1.80645"
         id="g107">
</g>
      <g
         style="stroke-width:1.80645"
         id="g109">
</g>
      <g
         style="stroke-width:1.80645"
         id="g111">
</g>
      <g
         style="stroke-width:1.80645"
         id="g113">
</g>
      <g
         style="stroke-width:1.80645"
         id="g115">
</g>
      <g
         style="stroke-width:1.80645"
         id="g117">
</g>
      <g
         style="stroke-width:1.80645"
         id="g119">
</g>
      <g
         style="stroke-width:1.80645"
         id="g121">
</g>
      <g
         style="stroke-width:1.80645"
         id="g123">
</g>
      <g
         style="stroke-width:1.80645"
         id="g125">
</g>
      <g
         style="stroke-width:1.80645"
         id="g127">
</g>
      <g
         style="stroke-width:1.80645"
         id="g129">
</g>
      <g
         style="stroke-width:1.80645"
         id="g131">
</g>
      <g
         style="stroke-width:1.80645"
         id="g133">
</g>
      <g
         style="stroke-width:1.80645"
         id="g135">
</g>
    </g>
    <text
       style="line-height:1.25;font-family:'Archivo Black';font-size:158.74999879px;-inkscape-font-specification:'Archivo Black, Bold';font-weight:bold;white-space:pre;shape-inside:url(#rect178);font-style:normal;font-stretch:normal;font-variant:normal;"
       id="text176"
       xml:space="preserve" />
    <text
       transform="scale(0.86417166,1.1571775)"
       id="text184"
       y="1546.8668"
       x="52.48629"
       style="font-weight:bold;font-size:391.898px;line-height:1.25;font-family:Ubuntu;-inkscape-font-specification:'Ubuntu Bold';stroke-width:3.96875"
       xml:space="preserve"><tspan
         style="font-size:391.898px;stroke-width:3.96875"
         y="1546.8668"
         x="52.48629"
         id="tspan182"
         sodipodi:role="line">Code&amp;Coffee</tspan></text>
  </g>
</svg>
